<svg xmlns="http://www.w3.org/2000/svg" width="798" height="178" viewBox="0 0 798 178">
<rect width="798" height="178" rx="8" fill="#f6f8fa"/>
<!-- pellets -->
<circle cx="33.5" cy="53.5" r="1.80" fill="#ebedf0"></circle>
<circle cx="47.5" cy="53.5" r="1.80" fill="#ebedf0"></circle>
<circle cx="61.5" cy="53.5" r="1.80" fill="#ebedf0"></circle>
<circle cx="75.5" cy="53.5" r="1.80" fill="#ebedf0"></circle>
<circle cx="89.5" cy="53.5" r="1.80" fill="#ebedf0"></circle>
<circle cx="103.5" cy="53.5" r="1.80" fill="#ebedf0"></circle>
<circle cx="117.5" cy="53.5" r="1.80" fill="#ebedf0"></circle>
<circle cx="131.5" cy="53.5" r="1.80" fill="#ebedf0"></circle>
<circle cx="145.5" cy="53.5" r="1.80" fill="#ebedf0"></circle>
<circle cx="159.5" cy="53.5" r="1.80" fill="#ebedf0"></circle>
<circle cx="173.5" cy="53.5" r="1.80" fill="#ebedf0"></circle>
<circle cx="187.5" cy="53.5" r="1.80" fill="#ebedf0"></circle>
<circle cx="201.5" cy="53.5" r="1.80" fill="#ebedf0"></circle>
<circle cx="215.5" cy="53.5" r="1.80" fill="#ebedf0"></circle>
<circle cx="229.5" cy="53.5" r="1.80" fill="#ebedf0"></circle>
<circle cx="243.5" cy="53.5" r="1.80" fill="#ebedf0"></circle>
<circle cx="257.5" cy="53.5" r="1.80" fill="#ebedf0"></circle>
<circle cx="271.5" cy="53.5" r="1.80" fill="#ebedf0"></circle>
<circle cx="285.5" cy="53.5" r="1.80" fill="#ebedf0"></circle>
<circle cx="299.5" cy="53.5" r="1.80" fill="#ebedf0"></circle>
<circle cx="313.5" cy="53.5" r="1.80" fill="#ebedf0"></circle>
<circle cx="327.5" cy="53.5" r="1.80" fill="#ebedf0"></circle>
<circle cx="341.5" cy="53.5" r="1.80" fill="#ebedf0"></circle>
<circle cx="355.5" cy="53.5" r="1.80" fill="#ebedf0"></circle>
<circle cx="369.5" cy="53.5" r="1.80" fill="#ebedf0"></circle>
<circle cx="383.5" cy="53.5" r="1.80" fill="#ebedf0"></circle>
<circle cx="397.5" cy="53.5" r="1.80" fill="#ebedf0"></circle>
<circle cx="411.5" cy="53.5" r="1.80" fill="#ebedf0"></circle>
<circle cx="425.5" cy="53.5" r="1.80" fill="#ebedf0"></circle>
<circle cx="439.5" cy="53.5" r="1.80" fill="#ebedf0"></circle>
<circle cx="453.5" cy="53.5" r="1.80" fill="#ebedf0"></circle>
<circle cx="467.5" cy="53.5" r="1.80" fill="#ebedf0"></circle>
<circle cx="481.5" cy="53.5" r="1.80" fill="#ebedf0"></circle>
<circle cx="495.5" cy="53.5" r="1.80" fill="#ebedf0"></circle>
<circle cx="509.5" cy="53.5" r="1.80" fill="#ebedf0"></circle>
<circle cx="523.5" cy="53.5" r="1.80" fill="#ebedf0"></circle>
<circle cx="537.5" cy="53.5" r="1.80" fill="#ebedf0"></circle>
<circle cx="551.5" cy="53.5" r="1.80" fill="#ebedf0"></circle>
<circle cx="565.5" cy="53.5" r="1.80" fill="#ebedf0"></circle>
<circle cx="579.5" cy="53.5" r="1.80" fill="#ebedf0"></circle>
<circle cx="593.5" cy="53.5" r="1.80" fill="#ebedf0"></circle>
<circle cx="607.5" cy="53.5" r="1.80" fill="#ebedf0"></circle>
<circle cx="621.5" cy="53.5" r="1.80" fill="#ebedf0"></circle>
<circle cx="635.5" cy="53.5" r="1.80" fill="#ebedf0"></circle>
<circle cx="649.5" cy="53.5" r="1.80" fill="#ebedf0"></circle>
<circle cx="663.5" cy="53.5" r="1.80" fill="#ebedf0"></circle>
<circle cx="677.5" cy="53.5" r="1.80" fill="#ebedf0"></circle>
<circle cx="691.5" cy="53.5" r="1.80" fill="#ebedf0"></circle>
<circle cx="705.5" cy="53.5" r="1.80" fill="#ebedf0"></circle>
<circle cx="719.5" cy="53.5" r="1.80" fill="#ebedf0"></circle>
<circle cx="733.5" cy="53.5" r="1.80" fill="#ebedf0"></circle>
<circle cx="747.5" cy="53.5" r="4.20" fill="#216e39"><animate attributeName="opacity" values="1;1;0;0" keyTimes="0;0.1375;0.1475;1" dur="14.0s" repeatCount="indefinite"/></circle>
<circle cx="761.5" cy="53.5" r="1.80" fill="#ebedf0"></circle>
<circle cx="761.5" cy="67.5" r="1.80" fill="#ebedf0"></circle>
<circle cx="747.5" cy="67.5" r="1.80" fill="#ebedf0"></circle>
<circle cx="733.5" cy="67.5" r="1.80" fill="#ebedf0"></circle>
<circle cx="719.5" cy="67.5" r="1.80" fill="#ebedf0"></circle>
<circle cx="705.5" cy="67.5" r="1.80" fill="#ebedf0"></circle>
<circle cx="691.5" cy="67.5" r="1.80" fill="#ebedf0"></circle>
<circle cx="677.5" cy="67.5" r="1.80" fill="#ebedf0"></circle>
<circle cx="663.5" cy="67.5" r="1.80" fill="#ebedf0"></circle>
<circle cx="649.5" cy="67.5" r="1.80" fill="#ebedf0"></circle>
<circle cx="635.5" cy="67.5" r="1.80" fill="#ebedf0"></circle>
<circle cx="621.5" cy="67.5" r="1.80" fill="#ebedf0"></circle>
<circle cx="607.5" cy="67.5" r="1.80" fill="#ebedf0"></circle>
<circle cx="593.5" cy="67.5" r="1.80" fill="#ebedf0"></circle>
<circle cx="579.5" cy="67.5" r="1.80" fill="#ebedf0"></circle>
<circle cx="565.5" cy="67.5" r="1.80" fill="#ebedf0"></circle>
<circle cx="551.5" cy="67.5" r="1.80" fill="#ebedf0"></circle>
<circle cx="537.5" cy="67.5" r="1.80" fill="#ebedf0"></circle>
<circle cx="523.5" cy="67.5" r="1.80" fill="#ebedf0"></circle>
<circle cx="509.5" cy="67.5" r="1.80" fill="#ebedf0"></circle>
<circle cx="495.5" cy="67.5" r="1.80" fill="#ebedf0"></circle>
<circle cx="481.5" cy="67.5" r="1.80" fill="#ebedf0"></circle>
<circle cx="467.5" cy="67.5" r="1.80" fill="#ebedf0"></circle>
<circle cx="453.5" cy="67.5" r="1.80" fill="#ebedf0"></circle>
<circle cx="439.5" cy="67.5" r="1.80" fill="#ebedf0"></circle>
<circle cx="425.5" cy="67.5" r="1.80" fill="#ebedf0"></circle>
<circle cx="411.5" cy="67.5" r="1.80" fill="#ebedf0"></circle>
<circle cx="397.5" cy="67.5" r="1.80" fill="#ebedf0"></circle>
<circle cx="383.5" cy="67.5" r="1.80" fill="#ebedf0"></circle>
<circle cx="369.5" cy="67.5" r="1.80" fill="#ebedf0"></circle>
<circle cx="355.5" cy="67.5" r="1.80" fill="#ebedf0"></circle>
<circle cx="341.5" cy="67.5" r="1.80" fill="#ebedf0"></circle>
<circle cx="327.5" cy="67.5" r="1.80" fill="#ebedf0"></circle>
<circle cx="313.5" cy="67.5" r="1.80" fill="#ebedf0"></circle>
<circle cx="299.5" cy="67.5" r="1.80" fill="#ebedf0"></circle>
<circle cx="285.5" cy="67.5" r="1.80" fill="#ebedf0"></circle>
<circle cx="271.5" cy="67.5" r="1.80" fill="#ebedf0"></circle>
<circle cx="257.5" cy="67.5" r="1.80" fill="#ebedf0"></circle>
<circle cx="243.5" cy="67.5" r="1.80" fill="#ebedf0"></circle>
<circle cx="229.5" cy="67.5" r="1.80" fill="#ebedf0"></circle>
<circle cx="215.5" cy="67.5" r="1.80" fill="#ebedf0"></circle>
<circle cx="201.5" cy="67.5" r="1.80" fill="#ebedf0"></circle>
<circle cx="187.5" cy="67.5" r="1.80" fill="#ebedf0"></circle>
<circle cx="173.5" cy="67.5" r="1.80" fill="#ebedf0"></circle>
<circle cx="159.5" cy="67.5" r="1.80" fill="#ebedf0"></circle>
<circle cx="145.5" cy="67.5" r="1.80" fill="#ebedf0"></circle>
<circle cx="131.5" cy="67.5" r="1.80" fill="#ebedf0"></circle>
<circle cx="117.5" cy="67.5" r="1.80" fill="#ebedf0"></circle>
<circle cx="103.5" cy="67.5" r="1.80" fill="#ebedf0"></circle>
<circle cx="89.5" cy="67.5" r="1.80" fill="#ebedf0"></circle>
<circle cx="75.5" cy="67.5" r="1.80" fill="#ebedf0"></circle>
<circle cx="61.5" cy="67.5" r="1.80" fill="#ebedf0"></circle>
<circle cx="47.5" cy="67.5" r="1.80" fill="#ebedf0"></circle>
<circle cx="33.5" cy="67.5" r="1.80" fill="#ebedf0"></circle>
<circle cx="33.5" cy="81.5" r="1.80" fill="#ebedf0"></circle>
<circle cx="47.5" cy="81.5" r="1.80" fill="#ebedf0"></circle>
<circle cx="61.5" cy="81.5" r="1.80" fill="#ebedf0"></circle>
<circle cx="75.5" cy="81.5" r="1.80" fill="#ebedf0"></circle>
<circle cx="89.5" cy="81.5" r="1.80" fill="#ebedf0"></circle>
<circle cx="103.5" cy="81.5" r="1.80" fill="#ebedf0"></circle>
<circle cx="117.5" cy="81.5" r="1.80" fill="#ebedf0"></circle>
<circle cx="131.5" cy="81.5" r="1.80" fill="#ebedf0"></circle>
<circle cx="145.5" cy="81.5" r="1.80" fill="#ebedf0"></circle>
<circle cx="159.5" cy="81.5" r="1.80" fill="#ebedf0"></circle>
<circle cx="173.5" cy="81.5" r="1.80" fill="#ebedf0"></circle>
<circle cx="187.5" cy="81.5" r="1.80" fill="#ebedf0"></circle>
<circle cx="201.5" cy="81.5" r="1.80" fill="#ebedf0"></circle>
<circle cx="215.5" cy="81.5" r="1.80" fill="#ebedf0"></circle>
<circle cx="229.5" cy="81.5" r="1.80" fill="#ebedf0"></circle>
<circle cx="243.5" cy="81.5" r="1.80" fill="#ebedf0"></circle>
<circle cx="257.5" cy="81.5" r="1.80" fill="#ebedf0"></circle>
<circle cx="271.5" cy="81.5" r="1.80" fill="#ebedf0"></circle>
<circle cx="285.5" cy="81.5" r="1.80" fill="#ebedf0"></circle>
<circle cx="299.5" cy="81.5" r="1.80" fill="#ebedf0"></circle>
<circle cx="313.5" cy="81.5" r="1.80" fill="#ebedf0"></circle>
<circle cx="327.5" cy="81.5" r="1.80" fill="#ebedf0"></circle>
<circle cx="341.5" cy="81.5" r="1.80" fill="#ebedf0"></circle>
<circle cx="355.5" cy="81.5" r="1.80" fill="#ebedf0"></circle>
<circle cx="369.5" cy="81.5" r="1.80" fill="#ebedf0"></circle>
<circle cx="383.5" cy="81.5" r="1.80" fill="#ebedf0"></circle>
<circle cx="397.5" cy="81.5" r="1.80" fill="#ebedf0"></circle>
<circle cx="411.5" cy="81.5" r="1.80" fill="#ebedf0"></circle>
<circle cx="425.5" cy="81.5" r="1.80" fill="#ebedf0"></circle>
<circle cx="439.5" cy="81.5" r="1.80" fill="#ebedf0"></circle>
<circle cx="453.5" cy="81.5" r="1.80" fill="#ebedf0"></circle>
<circle cx="467.5" cy="81.5" r="1.80" fill="#ebedf0"></circle>
<circle cx="481.5" cy="81.5" r="1.80" fill="#ebedf0"></circle>
<circle cx="495.5" cy="81.5" r="1.80" fill="#ebedf0"></circle>
<circle cx="509.5" cy="81.5" r="1.80" fill="#ebedf0"></circle>
<circle cx="523.5" cy="81.5" r="1.80" fill="#ebedf0"></circle>
<circle cx="537.5" cy="81.5" r="1.80" fill="#ebedf0"></circle>
<circle cx="551.5" cy="81.5" r="1.80" fill="#ebedf0"></circle>
<circle cx="565.5" cy="81.5" r="1.80" fill="#ebedf0"></circle>
<circle cx="579.5" cy="81.5" r="1.80" fill="#ebedf0"></circle>
<circle cx="593.5" cy="81.5" r="1.80" fill="#ebedf0"></circle>
<circle cx="607.5" cy="81.5" r="1.80" fill="#ebedf0"></circle>
<circle cx="621.5" cy="81.5" r="1.80" fill="#ebedf0"></circle>
<circle cx="635.5" cy="81.5" r="1.80" fill="#ebedf0"></circle>
<circle cx="649.5" cy="81.5" r="1.80" fill="#ebedf0"></circle>
<circle cx="663.5" cy="81.5" r="1.80" fill="#ebedf0"></circle>
<circle cx="677.5" cy="81.5" r="1.80" fill="#ebedf0"></circle>
<circle cx="691.5" cy="81.5" r="1.80" fill="#ebedf0"></circle>
<circle cx="705.5" cy="81.5" r="1.80" fill="#ebedf0"></circle>
<circle cx="719.5" cy="81.5" r="1.80" fill="#ebedf0"></circle>
<circle cx="733.5" cy="81.5" r="1.80" fill="#ebedf0"></circle>
<circle cx="747.5" cy="81.5" r="1.80" fill="#ebedf0"></circle>
<circle cx="761.5" cy="81.5" r="1.80" fill="#ebedf0"></circle>
<circle cx="761.5" cy="95.5" r="3.80" fill="#30a14e"><animate attributeName="opacity" values="1;1;0;0" keyTimes="0;0.4286;0.4386;1" dur="14.0s" repeatCount="indefinite"/></circle>
<circle cx="747.5" cy="95.5" r="1.80" fill="#ebedf0"></circle>
<circle cx="733.5" cy="95.5" r="1.80" fill="#ebedf0"></circle>
<circle cx="719.5" cy="95.5" r="1.80" fill="#ebedf0"></circle>
<circle cx="705.5" cy="95.5" r="1.80" fill="#ebedf0"></circle>
<circle cx="691.5" cy="95.5" r="1.80" fill="#ebedf0"></circle>
<circle cx="677.5" cy="95.5" r="1.80" fill="#ebedf0"></circle>
<circle cx="663.5" cy="95.5" r="1.80" fill="#ebedf0"></circle>
<circle cx="649.5" cy="95.5" r="1.80" fill="#ebedf0"></circle>
<circle cx="635.5" cy="95.5" r="1.80" fill="#ebedf0"></circle>
<circle cx="621.5" cy="95.5" r="1.80" fill="#ebedf0"></circle>
<circle cx="607.5" cy="95.5" r="1.80" fill="#ebedf0"></circle>
<circle cx="593.5" cy="95.5" r="1.80" fill="#ebedf0"></circle>
<circle cx="579.5" cy="95.5" r="1.80" fill="#ebedf0"></circle>
<circle cx="565.5" cy="95.5" r="1.80" fill="#ebedf0"></circle>
<circle cx="551.5" cy="95.5" r="1.80" fill="#ebedf0"></circle>
<circle cx="537.5" cy="95.5" r="1.80" fill="#ebedf0"></circle>
<circle cx="523.5" cy="95.5" r="1.80" fill="#ebedf0"></circle>
<circle cx="509.5" cy="95.5" r="1.80" fill="#ebedf0"></circle>
<circle cx="495.5" cy="95.5" r="1.80" fill="#ebedf0"></circle>
<circle cx="481.5" cy="95.5" r="1.80" fill="#ebedf0"></circle>
<circle cx="467.5" cy="95.5" r="1.80" fill="#ebedf0"></circle>
<circle cx="453.5" cy="95.5" r="1.80" fill="#ebedf0"></circle>
<circle cx="439.5" cy="95.5" r="1.80" fill="#ebedf0"></circle>
<circle cx="425.5" cy="95.5" r="1.80" fill="#ebedf0"></circle>
<circle cx="411.5" cy="95.5" r="1.80" fill="#ebedf0"></circle>
<circle cx="397.5" cy="95.5" r="1.80" fill="#ebedf0"></circle>
<circle cx="383.5" cy="95.5" r="1.80" fill="#ebedf0"></circle>
<circle cx="369.5" cy="95.5" r="1.80" fill="#ebedf0"></circle>
<circle cx="355.5" cy="95.5" r="1.80" fill="#ebedf0"></circle>
<circle cx="341.5" cy="95.5" r="1.80" fill="#ebedf0"></circle>
<circle cx="327.5" cy="95.5" r="1.80" fill="#ebedf0"></circle>
<circle cx="313.5" cy="95.5" r="1.80" fill="#ebedf0"></circle>
<circle cx="299.5" cy="95.5" r="1.80" fill="#ebedf0"></circle>
<circle cx="285.5" cy="95.5" r="1.80" fill="#ebedf0"></circle>
<circle cx="271.5" cy="95.5" r="1.80" fill="#ebedf0"></circle>
<circle cx="257.5" cy="95.5" r="1.80" fill="#ebedf0"></circle>
<circle cx="243.5" cy="95.5" r="1.80" fill="#ebedf0"></circle>
<circle cx="229.5" cy="95.5" r="1.80" fill="#ebedf0"></circle>
<circle cx="215.5" cy="95.5" r="1.80" fill="#ebedf0"></circle>
<circle cx="201.5" cy="95.5" r="1.80" fill="#ebedf0"></circle>
<circle cx="187.5" cy="95.5" r="1.80" fill="#ebedf0"></circle>
<circle cx="173.5" cy="95.5" r="1.80" fill="#ebedf0"></circle>
<circle cx="159.5" cy="95.5" r="1.80" fill="#ebedf0"></circle>
<circle cx="145.5" cy="95.5" r="1.80" fill="#ebedf0"></circle>
<circle cx="131.5" cy="95.5" r="1.80" fill="#ebedf0"></circle>
<circle cx="117.5" cy="95.5" r="1.80" fill="#ebedf0"></circle>
<circle cx="103.5" cy="95.5" r="1.80" fill="#ebedf0"></circle>
<circle cx="89.5" cy="95.5" r="1.80" fill="#ebedf0"></circle>
<circle cx="75.5" cy="95.5" r="1.80" fill="#ebedf0"></circle>
<circle cx="61.5" cy="95.5" r="1.80" fill="#ebedf0"></circle>
<circle cx="47.5" cy="95.5" r="1.80" fill="#ebedf0"></circle>
<circle cx="33.5" cy="95.5" r="1.80" fill="#ebedf0"></circle>
<circle cx="33.5" cy="109.5" r="1.80" fill="#ebedf0"></circle>
<circle cx="47.5" cy="109.5" r="1.80" fill="#ebedf0"></circle>
<circle cx="61.5" cy="109.5" r="1.80" fill="#ebedf0"></circle>
<circle cx="75.5" cy="109.5" r="1.80" fill="#ebedf0"></circle>
<circle cx="89.5" cy="109.5" r="1.80" fill="#ebedf0"></circle>
<circle cx="103.5" cy="109.5" r="1.80" fill="#ebedf0"></circle>
<circle cx="117.5" cy="109.5" r="1.80" fill="#ebedf0"></circle>
<circle cx="131.5" cy="109.5" r="1.80" fill="#ebedf0"></circle>
<circle cx="145.5" cy="109.5" r="1.80" fill="#ebedf0"></circle>
<circle cx="159.5" cy="109.5" r="1.80" fill="#ebedf0"></circle>
<circle cx="173.5" cy="109.5" r="1.80" fill="#ebedf0"></circle>
<circle cx="187.5" cy="109.5" r="1.80" fill="#ebedf0"></circle>
<circle cx="201.5" cy="109.5" r="1.80" fill="#ebedf0"></circle>
<circle cx="215.5" cy="109.5" r="1.80" fill="#ebedf0"></circle>
<circle cx="229.5" cy="109.5" r="1.80" fill="#ebedf0"></circle>
<circle cx="243.5" cy="109.5" r="1.80" fill="#ebedf0"></circle>
<circle cx="257.5" cy="109.5" r="1.80" fill="#ebedf0"></circle>
<circle cx="271.5" cy="109.5" r="1.80" fill="#ebedf0"></circle>
<circle cx="285.5" cy="109.5" r="1.80" fill="#ebedf0"></circle>
<circle cx="299.5" cy="109.5" r="1.80" fill="#ebedf0"></circle>
<circle cx="313.5" cy="109.5" r="1.80" fill="#ebedf0"></circle>
<circle cx="327.5" cy="109.5" r="1.80" fill="#ebedf0"></circle>
<circle cx="341.5" cy="109.5" r="1.80" fill="#ebedf0"></circle>
<circle cx="355.5" cy="109.5" r="1.80" fill="#ebedf0"></circle>
<circle cx="369.5" cy="109.5" r="1.80" fill="#ebedf0"></circle>
<circle cx="383.5" cy="109.5" r="1.80" fill="#ebedf0"></circle>
<circle cx="397.5" cy="109.5" r="1.80" fill="#ebedf0"></circle>
<circle cx="411.5" cy="109.5" r="1.80" fill="#ebedf0"></circle>
<circle cx="425.5" cy="109.5" r="1.80" fill="#ebedf0"></circle>
<circle cx="439.5" cy="109.5" r="1.80" fill="#ebedf0"></circle>
<circle cx="453.5" cy="109.5" r="1.80" fill="#ebedf0"></circle>
<circle cx="467.5" cy="109.5" r="1.80" fill="#ebedf0"></circle>
<circle cx="481.5" cy="109.5" r="1.80" fill="#ebedf0"></circle>
<circle cx="495.5" cy="109.5" r="1.80" fill="#ebedf0"></circle>
<circle cx="509.5" cy="109.5" r="1.80" fill="#ebedf0"></circle>
<circle cx="523.5" cy="109.5" r="1.80" fill="#ebedf0"></circle>
<circle cx="537.5" cy="109.5" r="1.80" fill="#ebedf0"></circle>
<circle cx="551.5" cy="109.5" r="1.80" fill="#ebedf0"></circle>
<circle cx="565.5" cy="109.5" r="1.80" fill="#ebedf0"></circle>
<circle cx="579.5" cy="109.5" r="1.80" fill="#ebedf0"></circle>
<circle cx="593.5" cy="109.5" r="1.80" fill="#ebedf0"></circle>
<circle cx="607.5" cy="109.5" r="1.80" fill="#ebedf0"></circle>
<circle cx="621.5" cy="109.5" r="1.80" fill="#ebedf0"></circle>
<circle cx="635.5" cy="109.5" r="1.80" fill="#ebedf0"></circle>
<circle cx="649.5" cy="109.5" r="1.80" fill="#ebedf0"></circle>
<circle cx="663.5" cy="109.5" r="1.80" fill="#ebedf0"></circle>
<circle cx="677.5" cy="109.5" r="1.80" fill="#ebedf0"></circle>
<circle cx="691.5" cy="109.5" r="1.80" fill="#ebedf0"></circle>
<circle cx="705.5" cy="109.5" r="1.80" fill="#ebedf0"></circle>
<circle cx="719.5" cy="109.5" r="1.80" fill="#ebedf0"></circle>
<circle cx="733.5" cy="109.5" r="1.80" fill="#ebedf0"></circle>
<circle cx="747.5" cy="109.5" r="1.80" fill="#ebedf0"></circle>
<circle cx="761.5" cy="109.5" r="1.80" fill="#ebedf0"></circle>
<circle cx="761.5" cy="123.5" r="1.80" fill="#ebedf0"></circle>
<circle cx="747.5" cy="123.5" r="1.80" fill="#ebedf0"></circle>
<circle cx="733.5" cy="123.5" r="1.80" fill="#ebedf0"></circle>
<circle cx="719.5" cy="123.5" r="1.80" fill="#ebedf0"></circle>
<circle cx="705.5" cy="123.5" r="1.80" fill="#ebedf0"></circle>
<circle cx="691.5" cy="123.5" r="1.80" fill="#ebedf0"></circle>
<circle cx="677.5" cy="123.5" r="1.80" fill="#ebedf0"></circle>
<circle cx="663.5" cy="123.5" r="1.80" fill="#ebedf0"></circle>
<circle cx="649.5" cy="123.5" r="1.80" fill="#ebedf0"></circle>
<circle cx="635.5" cy="123.5" r="1.80" fill="#ebedf0"></circle>
<circle cx="621.5" cy="123.5" r="1.80" fill="#ebedf0"></circle>
<circle cx="607.5" cy="123.5" r="1.80" fill="#ebedf0"></circle>
<circle cx="593.5" cy="123.5" r="1.80" fill="#ebedf0"></circle>
<circle cx="579.5" cy="123.5" r="1.80" fill="#ebedf0"></circle>
<circle cx="565.5" cy="123.5" r="1.80" fill="#ebedf0"></circle>
<circle cx="551.5" cy="123.5" r="1.80" fill="#ebedf0"></circle>
<circle cx="537.5" cy="123.5" r="1.80" fill="#ebedf0"></circle>
<circle cx="523.5" cy="123.5" r="1.80" fill="#ebedf0"></circle>
<circle cx="509.5" cy="123.5" r="1.80" fill="#ebedf0"></circle>
<circle cx="495.5" cy="123.5" r="1.80" fill="#ebedf0"></circle>
<circle cx="481.5" cy="123.5" r="1.80" fill="#ebedf0"></circle>
<circle cx="467.5" cy="123.5" r="1.80" fill="#ebedf0"></circle>
<circle cx="453.5" cy="123.5" r="1.80" fill="#ebedf0"></circle>
<circle cx="439.5" cy="123.5" r="1.80" fill="#ebedf0"></circle>
<circle cx="425.5" cy="123.5" r="1.80" fill="#ebedf0"></circle>
<circle cx="411.5" cy="123.5" r="1.80" fill="#ebedf0"></circle>
<circle cx="397.5" cy="123.5" r="1.80" fill="#ebedf0"></circle>
<circle cx="383.5" cy="123.5" r="1.80" fill="#ebedf0"></circle>
<circle cx="369.5" cy="123.5" r="1.80" fill="#ebedf0"></circle>
<circle cx="355.5" cy="123.5" r="1.80" fill="#ebedf0"></circle>
<circle cx="341.5" cy="123.5" r="1.80" fill="#ebedf0"></circle>
<circle cx="327.5" cy="123.5" r="1.80" fill="#ebedf0"></circle>
<circle cx="313.5" cy="123.5" r="1.80" fill="#ebedf0"></circle>
<circle cx="299.5" cy="123.5" r="1.80" fill="#ebedf0"></circle>
<circle cx="285.5" cy="123.5" r="1.80" fill="#ebedf0"></circle>
<circle cx="271.5" cy="123.5" r="1.80" fill="#ebedf0"></circle>
<circle cx="257.5" cy="123.5" r="1.80" fill="#ebedf0"></circle>
<circle cx="243.5" cy="123.5" r="1.80" fill="#ebedf0"></circle>
<circle cx="229.5" cy="123.5" r="1.80" fill="#ebedf0"></circle>
<circle cx="215.5" cy="123.5" r="1.80" fill="#ebedf0"></circle>
<circle cx="201.5" cy="123.5" r="1.80" fill="#ebedf0"></circle>
<circle cx="187.5" cy="123.5" r="1.80" fill="#ebedf0"></circle>
<circle cx="173.5" cy="123.5" r="1.80" fill="#ebedf0"></circle>
<circle cx="159.5" cy="123.5" r="1.80" fill="#ebedf0"></circle>
<circle cx="145.5" cy="123.5" r="1.80" fill="#ebedf0"></circle>
<circle cx="131.5" cy="123.5" r="1.80" fill="#ebedf0"></circle>
<circle cx="117.5" cy="123.5" r="1.80" fill="#ebedf0"></circle>
<circle cx="103.5" cy="123.5" r="1.80" fill="#ebedf0"></circle>
<circle cx="89.5" cy="123.5" r="1.80" fill="#ebedf0"></circle>
<circle cx="75.5" cy="123.5" r="1.80" fill="#ebedf0"></circle>
<circle cx="61.5" cy="123.5" r="1.80" fill="#ebedf0"></circle>
<circle cx="47.5" cy="123.5" r="1.80" fill="#ebedf0"></circle>
<circle cx="33.5" cy="123.5" r="1.80" fill="#ebedf0"></circle>
<circle cx="33.5" cy="137.5" r="1.80" fill="#ebedf0"></circle>
<circle cx="47.5" cy="137.5" r="1.80" fill="#ebedf0"></circle>
<circle cx="61.5" cy="137.5" r="1.80" fill="#ebedf0"></circle>
<circle cx="75.5" cy="137.5" r="1.80" fill="#ebedf0"></circle>
<circle cx="89.5" cy="137.5" r="1.80" fill="#ebedf0"></circle>
<circle cx="103.5" cy="137.5" r="1.80" fill="#ebedf0"></circle>
<circle cx="117.5" cy="137.5" r="1.80" fill="#ebedf0"></circle>
<circle cx="131.5" cy="137.5" r="1.80" fill="#ebedf0"></circle>
<circle cx="145.5" cy="137.5" r="1.80" fill="#ebedf0"></circle>
<circle cx="159.5" cy="137.5" r="1.80" fill="#ebedf0"></circle>
<circle cx="173.5" cy="137.5" r="1.80" fill="#ebedf0"></circle>
<circle cx="187.5" cy="137.5" r="1.80" fill="#ebedf0"></circle>
<circle cx="201.5" cy="137.5" r="1.80" fill="#ebedf0"></circle>
<circle cx="215.5" cy="137.5" r="1.80" fill="#ebedf0"></circle>
<circle cx="229.5" cy="137.5" r="1.80" fill="#ebedf0"></circle>
<circle cx="243.5" cy="137.5" r="1.80" fill="#ebedf0"></circle>
<circle cx="257.5" cy="137.5" r="1.80" fill="#ebedf0"></circle>
<circle cx="271.5" cy="137.5" r="1.80" fill="#ebedf0"></circle>
<circle cx="285.5" cy="137.5" r="1.80" fill="#ebedf0"></circle>
<circle cx="299.5" cy="137.5" r="1.80" fill="#ebedf0"></circle>
<circle cx="313.5" cy="137.5" r="1.80" fill="#ebedf0"></circle>
<circle cx="327.5" cy="137.5" r="1.80" fill="#ebedf0"></circle>
<circle cx="341.5" cy="137.5" r="1.80" fill="#ebedf0"></circle>
<circle cx="355.5" cy="137.5" r="1.80" fill="#ebedf0"></circle>
<circle cx="369.5" cy="137.5" r="1.80" fill="#ebedf0"></circle>
<circle cx="383.5" cy="137.5" r="1.80" fill="#ebedf0"></circle>
<circle cx="397.5" cy="137.5" r="1.80" fill="#ebedf0"></circle>
<circle cx="411.5" cy="137.5" r="1.80" fill="#ebedf0"></circle>
<circle cx="425.5" cy="137.5" r="1.80" fill="#ebedf0"></circle>
<circle cx="439.5" cy="137.5" r="1.80" fill="#ebedf0"></circle>
<circle cx="453.5" cy="137.5" r="1.80" fill="#ebedf0"></circle>
<circle cx="467.5" cy="137.5" r="1.80" fill="#ebedf0"></circle>
<circle cx="481.5" cy="137.5" r="1.80" fill="#ebedf0"></circle>
<circle cx="495.5" cy="137.5" r="1.80" fill="#ebedf0"></circle>
<circle cx="509.5" cy="137.5" r="1.80" fill="#ebedf0"></circle>
<circle cx="523.5" cy="137.5" r="1.80" fill="#ebedf0"></circle>
<circle cx="537.5" cy="137.5" r="1.80" fill="#ebedf0"></circle>
<circle cx="551.5" cy="137.5" r="1.80" fill="#ebedf0"></circle>
<circle cx="565.5" cy="137.5" r="1.80" fill="#ebedf0"></circle>
<circle cx="579.5" cy="137.5" r="1.80" fill="#ebedf0"></circle>
<circle cx="593.5" cy="137.5" r="1.80" fill="#ebedf0"></circle>
<circle cx="607.5" cy="137.5" r="1.80" fill="#ebedf0"></circle>
<circle cx="621.5" cy="137.5" r="1.80" fill="#ebedf0"></circle>
<circle cx="635.5" cy="137.5" r="1.80" fill="#ebedf0"></circle>
<circle cx="649.5" cy="137.5" r="1.80" fill="#ebedf0"></circle>
<circle cx="663.5" cy="137.5" r="1.80" fill="#ebedf0"></circle>
<circle cx="677.5" cy="137.5" r="1.80" fill="#ebedf0"></circle>
<circle cx="691.5" cy="137.5" r="1.80" fill="#ebedf0"></circle>
<circle cx="705.5" cy="137.5" r="1.80" fill="#ebedf0"></circle>
<circle cx="719.5" cy="137.5" r="1.80" fill="#ebedf0"></circle>
<circle cx="733.5" cy="137.5" r="3.00" fill="#9be9a8"><animate attributeName="opacity" values="1;1;0;0" keyTimes="0;0.9919;1.0000;1" dur="14.0s" repeatCount="indefinite"/></circle>
<circle cx="747.5" cy="137.5" r="1.80" fill="#ebedf0"></circle>
<circle cx="761.5" cy="137.5" r="1.80" fill="#ebedf0"></circle>
<path id="mp" d="M33.5,53.5 L47.5,53.5 L61.5,53.5 L75.5,53.5 L89.5,53.5 L103.5,53.5 L117.5,53.5 L131.5,53.5 L145.5,53.5 L159.5,53.5 L173.5,53.5 L187.5,53.5 L201.5,53.5 L215.5,53.5 L229.5,53.5 L243.5,53.5 L257.5,53.5 L271.5,53.5 L285.5,53.5 L299.5,53.5 L313.5,53.5 L327.5,53.5 L341.5,53.5 L355.5,53.5 L369.5,53.5 L383.5,53.5 L397.5,53.5 L411.5,53.5 L425.5,53.5 L439.5,53.5 L453.5,53.5 L467.5,53.5 L481.5,53.5 L495.5,53.5 L509.5,53.5 L523.5,53.5 L537.5,53.5 L551.5,53.5 L565.5,53.5 L579.5,53.5 L593.5,53.5 L607.5,53.5 L621.5,53.5 L635.5,53.5 L649.5,53.5 L663.5,53.5 L677.5,53.5 L691.5,53.5 L705.5,53.5 L719.5,53.5 L733.5,53.5 L747.5,53.5 L761.5,53.5 L761.5,67.5 L747.5,67.5 L733.5,67.5 L719.5,67.5 L705.5,67.5 L691.5,67.5 L677.5,67.5 L663.5,67.5 L649.5,67.5 L635.5,67.5 L621.5,67.5 L607.5,67.5 L593.5,67.5 L579.5,67.5 L565.5,67.5 L551.5,67.5 L537.5,67.5 L523.5,67.5 L509.5,67.5 L495.5,67.5 L481.5,67.5 L467.5,67.5 L453.5,67.5 L439.5,67.5 L425.5,67.5 L411.5,67.5 L397.5,67.5 L383.5,67.5 L369.5,67.5 L355.5,67.5 L341.5,67.5 L327.5,67.5 L313.5,67.5 L299.5,67.5 L285.5,67.5 L271.5,67.5 L257.5,67.5 L243.5,67.5 L229.5,67.5 L215.5,67.5 L201.5,67.5 L187.5,67.5 L173.5,67.5 L159.5,67.5 L145.5,67.5 L131.5,67.5 L117.5,67.5 L103.5,67.5 L89.5,67.5 L75.5,67.5 L61.5,67.5 L47.5,67.5 L33.5,67.5 L33.5,81.5 L47.5,81.5 L61.5,81.5 L75.5,81.5 L89.5,81.5 L103.5,81.5 L117.5,81.5 L131.5,81.5 L145.5,81.5 L159.5,81.5 L173.5,81.5 L187.5,81.5 L201.5,81.5 L215.5,81.5 L229.5,81.5 L243.5,81.5 L257.5,81.5 L271.5,81.5 L285.5,81.5 L299.5,81.5 L313.5,81.5 L327.5,81.5 L341.5,81.5 L355.5,81.5 L369.5,81.5 L383.5,81.5 L397.5,81.5 L411.5,81.5 L425.5,81.5 L439.5,81.5 L453.5,81.5 L467.5,81.5 L481.5,81.5 L495.5,81.5 L509.5,81.5 L523.5,81.5 L537.5,81.5 L551.5,81.5 L565.5,81.5 L579.5,81.5 L593.5,81.5 L607.5,81.5 L621.5,81.5 L635.5,81.5 L649.5,81.5 L663.5,81.5 L677.5,81.5 L691.5,81.5 L705.5,81.5 L719.5,81.5 L733.5,81.5 L747.5,81.5 L761.5,81.5 L761.5,95.5 L747.5,95.5 L733.5,95.5 L719.5,95.5 L705.5,95.5 L691.5,95.5 L677.5,95.5 L663.5,95.5 L649.5,95.5 L635.5,95.5 L621.5,95.5 L607.5,95.5 L593.5,95.5 L579.5,95.5 L565.5,95.5 L551.5,95.5 L537.5,95.5 L523.5,95.5 L509.5,95.5 L495.5,95.5 L481.5,95.5 L467.5,95.5 L453.5,95.5 L439.5,95.5 L425.5,95.5 L411.5,95.5 L397.5,95.5 L383.5,95.5 L369.5,95.5 L355.5,95.5 L341.5,95.5 L327.5,95.5 L313.5,95.5 L299.5,95.5 L285.5,95.5 L271.5,95.5 L257.5,95.5 L243.5,95.5 L229.5,95.5 L215.5,95.5 L201.5,95.5 L187.5,95.5 L173.5,95.5 L159.5,95.5 L145.5,95.5 L131.5,95.5 L117.5,95.5 L103.5,95.5 L89.5,95.5 L75.5,95.5 L61.5,95.5 L47.5,95.5 L33.5,95.5 L33.5,109.5 L47.5,109.5 L61.5,109.5 L75.5,109.5 L89.5,109.5 L103.5,109.5 L117.5,109.5 L131.5,109.5 L145.5,109.5 L159.5,109.5 L173.5,109.5 L187.5,109.5 L201.5,109.5 L215.5,109.5 L229.5,109.5 L243.5,109.5 L257.5,109.5 L271.5,109.5 L285.5,109.5 L299.5,109.5 L313.5,109.5 L327.5,109.5 L341.5,109.5 L355.5,109.5 L369.5,109.5 L383.5,109.5 L397.5,109.5 L411.5,109.5 L425.5,109.5 L439.5,109.5 L453.5,109.5 L467.5,109.5 L481.5,109.5 L495.5,109.5 L509.5,109.5 L523.5,109.5 L537.5,109.5 L551.5,109.5 L565.5,109.5 L579.5,109.5 L593.5,109.5 L607.5,109.5 L621.5,109.5 L635.5,109.5 L649.5,109.5 L663.5,109.5 L677.5,109.5 L691.5,109.5 L705.5,109.5 L719.5,109.5 L733.5,109.5 L747.5,109.5 L761.5,109.5 L761.5,123.5 L747.5,123.5 L733.5,123.5 L719.5,123.5 L705.5,123.5 L691.5,123.5 L677.5,123.5 L663.5,123.5 L649.5,123.5 L635.5,123.5 L621.5,123.5 L607.5,123.5 L593.5,123.5 L579.5,123.5 L565.5,123.5 L551.5,123.5 L537.5,123.5 L523.5,123.5 L509.5,123.5 L495.5,123.5 L481.5,123.5 L467.5,123.5 L453.5,123.5 L439.5,123.5 L425.5,123.5 L411.5,123.5 L397.5,123.5 L383.5,123.5 L369.5,123.5 L355.5,123.5 L341.5,123.5 L327.5,123.5 L313.5,123.5 L299.5,123.5 L285.5,123.5 L271.5,123.5 L257.5,123.5 L243.5,123.5 L229.5,123.5 L215.5,123.5 L201.5,123.5 L187.5,123.5 L173.5,123.5 L159.5,123.5 L145.5,123.5 L131.5,123.5 L117.5,123.5 L103.5,123.5 L89.5,123.5 L75.5,123.5 L61.5,123.5 L47.5,123.5 L33.5,123.5 L33.5,137.5 L47.5,137.5 L61.5,137.5 L75.5,137.5 L89.5,137.5 L103.5,137.5 L117.5,137.5 L131.5,137.5 L145.5,137.5 L159.5,137.5 L173.5,137.5 L187.5,137.5 L201.5,137.5 L215.5,137.5 L229.5,137.5 L243.5,137.5 L257.5,137.5 L271.5,137.5 L285.5,137.5 L299.5,137.5 L313.5,137.5 L327.5,137.5 L341.5,137.5 L355.5,137.5 L369.5,137.5 L383.5,137.5 L397.5,137.5 L411.5,137.5 L425.5,137.5 L439.5,137.5 L453.5,137.5 L467.5,137.5 L481.5,137.5 L495.5,137.5 L509.5,137.5 L523.5,137.5 L537.5,137.5 L551.5,137.5 L565.5,137.5 L579.5,137.5 L593.5,137.5 L607.5,137.5 L621.5,137.5 L635.5,137.5 L649.5,137.5 L663.5,137.5 L677.5,137.5 L691.5,137.5 L705.5,137.5 L719.5,137.5 L733.5,137.5 L747.5,137.5 L761.5,137.5" fill="none" stroke="none"/>
<g id="pacman"><animateMotion dur="14.0s" repeatCount="indefinite" rotate="auto"><mpath href="#mp"/></animateMotion><path fill="#FFD700"><animate attributeName="d" values="M0,0 L9,3.5 A9,9 0 1,0 9,-3.5 Z;M0,0 L9,0.4 A9,9 0 1,0 9,-0.4 Z;M0,0 L9,0.1 A9,9 0 1,0 9,-0.1 Z;M0,0 L9,0.4 A9,9 0 1,0 9,-0.4 Z;M0,0 L9,3.5 A9,9 0 1,0 9,-3.5 Z" dur="0.32s" repeatCount="indefinite"/></path><circle cx="2" cy="-5.5" r="1.6" fill="#f6f8fa"/></g>
<!-- ghosts -->
<g id="g0"><animateMotion dur="14.0s" begin="-2.0s" repeatCount="indefinite" rotate="0"><mpath href="#mp"/></animateMotion><ellipse cx="0" cy="-3" rx="7" ry="8" fill="#FF0000"/><rect x="-7" y="-3" width="14" height="8" fill="#FF0000"/><path d="M-7,5 Q-5.2,9 -3.5,5 Q-1.7,1 0,5 Q1.7,9 3.5,5 Q5.2,1 7,5 L7,8 L-7,8 Z" fill="#FF0000"/><circle cx="-2.6" cy="-3.5" r="2.5" fill="white"/><circle cx="2.6"  cy="-3.5" r="2.5" fill="white"/><circle cx="-1.8" cy="-3" r="1.3" fill="#1a1aff"/><circle cx="3.4"  cy="-3" r="1.3" fill="#1a1aff"/></g>
<g id="g1"><animateMotion dur="14.0s" begin="-3.2s" repeatCount="indefinite" rotate="0"><mpath href="#mp"/></animateMotion><ellipse cx="0" cy="-3" rx="7" ry="8" fill="#FFB8FF"/><rect x="-7" y="-3" width="14" height="8" fill="#FFB8FF"/><path d="M-7,5 Q-5.2,9 -3.5,5 Q-1.7,1 0,5 Q1.7,9 3.5,5 Q5.2,1 7,5 L7,8 L-7,8 Z" fill="#FFB8FF"/><circle cx="-2.6" cy="-3.5" r="2.5" fill="white"/><circle cx="2.6"  cy="-3.5" r="2.5" fill="white"/><circle cx="-1.8" cy="-3" r="1.3" fill="#1a1aff"/><circle cx="3.4"  cy="-3" r="1.3" fill="#1a1aff"/></g>
<g id="g2"><animateMotion dur="14.0s" begin="-4.4s" repeatCount="indefinite" rotate="0"><mpath href="#mp"/></animateMotion><ellipse cx="0" cy="-3" rx="7" ry="8" fill="#00FFFF"/><rect x="-7" y="-3" width="14" height="8" fill="#00FFFF"/><path d="M-7,5 Q-5.2,9 -3.5,5 Q-1.7,1 0,5 Q1.7,9 3.5,5 Q5.2,1 7,5 L7,8 L-7,8 Z" fill="#00FFFF"/><circle cx="-2.6" cy="-3.5" r="2.5" fill="white"/><circle cx="2.6"  cy="-3.5" r="2.5" fill="white"/><circle cx="-1.8" cy="-3" r="1.3" fill="#1a1aff"/><circle cx="3.4"  cy="-3" r="1.3" fill="#1a1aff"/></g>
<g id="g3"><animateMotion dur="14.0s" begin="-5.6s" repeatCount="indefinite" rotate="0"><mpath href="#mp"/></animateMotion><ellipse cx="0" cy="-3" rx="7" ry="8" fill="#FFB852"/><rect x="-7" y="-3" width="14" height="8" fill="#FFB852"/><path d="M-7,5 Q-5.2,9 -3.5,5 Q-1.7,1 0,5 Q1.7,9 3.5,5 Q5.2,1 7,5 L7,8 L-7,8 Z" fill="#FFB852"/><circle cx="-2.6" cy="-3.5" r="2.5" fill="white"/><circle cx="2.6"  cy="-3.5" r="2.5" fill="white"/><circle cx="-1.8" cy="-3" r="1.3" fill="#1a1aff"/><circle cx="3.4"  cy="-3" r="1.3" fill="#1a1aff"/></g>
</svg>